<?xml version="1.0" encoding="UTF-8"?>
<!DOCTYPE svg PUBLIC "-//W3C//DTD SVG 1.1//EN" "http://www.w3.org/Graphics/SVG/1.1/DTD/svg11.dtd">
<svg xmlns="http://www.w3.org/2000/svg" version="1.1" width="192px" height="192px" style="shape-rendering:geometricPrecision; text-rendering:geometricPrecision; image-rendering:optimizeQuality; fill-rule:evenodd; clip-rule:evenodd" xmlns:xlink="http://www.w3.org/1999/xlink">
<g><path style="opacity:0.995" fill="#fdfdfd" d="M 19.5,-0.5 C 69.8333,-0.5 120.167,-0.5 170.5,-0.5C 180.741,2.74016 187.741,9.40683 191.5,19.5C 191.5,55.1667 191.5,90.8333 191.5,126.5C 190.833,125.833 190.167,125.167 189.5,124.5C 189.063,122.926 188.063,121.759 186.5,121C 183.278,120.65 180.612,119.316 178.5,117C 174.524,117.636 170.524,117.469 166.5,116.5C 166.829,110.463 166.496,104.463 165.5,98.5C 162.677,95.9131 160.01,95.9131 157.5,98.5C 157.167,99.1667 156.833,99.8333 156.5,100.5C 155.671,108.657 155.171,116.99 155,125.5C 154.283,124.956 153.783,124.289 153.5,123.5C 154.441,118.93 154.774,114.263 154.5,109.5C 154.179,107.952 153.179,107.285 151.5,107.5C 151.5,103.833 151.5,100.167 151.5,96.5C 152.833,96.5 153.5,95.8333 153.5,94.5C 154.338,94.1583 154.672,93.4916 154.5,92.5C 155.757,90.5778 156.923,88.5778 158,86.5C 161.324,90.2445 165.491,91.9112 170.5,91.5C 176.901,92.0387 181.901,89.7054 185.5,84.5C 186.645,73.2131 186.811,61.8798 186,50.5C 185.925,48.065 185.092,47.3984 183.5,48.5C 181.312,42.8224 177.145,40.1557 171,40.5C 165.819,40.0065 161.986,42.0065 159.5,46.5C 158.5,46.5 157.5,46.5 156.5,46.5C 156.666,42.1539 156.499,37.8206 156,33.5C 155.617,32.944 155.117,32.6107 154.5,32.5C 151.316,30.5864 147.649,29.9197 143.5,30.5C 142.542,30.9528 141.708,31.6195 141,32.5C 140.292,31.6195 139.458,30.9528 138.5,30.5C 135.167,30.5 131.833,30.5 128.5,30.5C 127.868,32.7426 126.534,34.4093 124.5,35.5C 124.737,34.209 124.404,33.209 123.5,32.5C 120.167,32.5 116.833,32.5 113.5,32.5C 112.96,38.8231 112.127,45.1565 111,51.5C 110.83,62.6743 110.33,73.6743 109.5,84.5C 109.829,71.9887 109.495,59.6554 108.5,47.5C 108.089,43.9209 106.089,41.7542 102.5,41C 98.5,40.3333 94.5,40.3333 90.5,41C 88.3395,41.9959 86.6728,43.4959 85.5,45.5C 84.5041,45.4142 83.6708,45.7476 83,46.5C 82.7734,49.9361 81.2734,50.9361 78.5,49.5C 75.2867,46.7256 71.62,44.7256 67.5,43.5C 63.3537,42.353 59.0204,42.1864 54.5,43C 53.5842,43.2784 52.9175,43.7784 52.5,44.5C 47.8782,46.7887 44.2115,50.1221 41.5,54.5C 39.6053,53.027 37.9387,51.3603 36.5,49.5C 36.1923,43.9138 35.5256,38.4138 34.5,33C 28.8333,32.3333 23.1667,32.3333 17.5,33C 16.5562,35.7191 16.2229,38.5525 16.5,41.5C 15.6236,41.3691 14.9569,41.7025 14.5,42.5C 11.4387,58.0102 10.272,73.6769 11,89.5C 14.7436,90.626 18.577,90.7927 22.5,90C 24.5,86.6667 26.5,86.6667 28.5,90C 33.5755,91.0093 38.4089,90.5093 43,88.5C 44.8003,89.3195 46.6336,89.9862 48.5,90.5C 49.0577,91.7899 50.0577,92.6232 51.5,93C 62.8754,96.6135 72.8754,94.4469 81.5,86.5C 84.1684,89.9176 87.6684,91.5842 92,91.5C 103.397,90.9245 114.73,90.2578 126,89.5C 129.8,90.1987 133.633,90.8653 137.5,91.5C 138.48,92.9814 139.647,94.3147 141,95.5C 141.78,97.3869 141.613,99.0536 140.5,100.5C 140.672,99.5084 140.338,98.8417 139.5,98.5C 136.167,98.5 132.833,98.5 129.5,98.5C 128.837,100.042 128.17,101.709 127.5,103.5C 126.833,119.328 126.167,134.995 125.5,150.5C 125.5,133.167 125.5,115.833 125.5,98.5C 121.629,98.185 117.962,98.5184 114.5,99.5C 114.5,116.5 114.5,133.5 114.5,150.5C 113.67,140.341 113.17,130.008 113,119.5C 112.667,119.833 112.333,120.167 112,120.5C 111.722,119.584 111.222,118.918 110.5,118.5C 110.49,112.786 107.823,109.12 102.5,107.5C 96.183,105.216 90.8497,106.549 86.5,111.5C 85.8501,111.196 85.1835,110.863 84.5,110.5C 83.9924,112.653 83.3257,113.987 82.5,114.5C 82.5,111.833 82.5,109.167 82.5,106.5C 79.2155,106.269 76.7155,107.603 75,110.5C 74.51,109.207 74.3433,107.873 74.5,106.5C 71.1667,106.5 67.8333,106.5 64.5,106.5C 63.1455,108.521 61.4788,110.188 59.5,111.5C 54.4772,106.822 48.4772,105.322 41.5,107C 37.4794,108.868 35.3128,112.035 35,116.5C 34.5004,123.492 34.3337,130.492 34.5,137.5C 34.0276,135.469 33.0276,133.802 31.5,132.5C 31.2447,129.984 30.4114,127.65 29,125.5C 26.9604,123.63 25.1271,121.63 23.5,119.5C 25.2922,118.691 27.2922,118.191 29.5,118C 31.0368,116.89 31.7035,115.39 31.5,113.5C 31.8279,101.662 26.1612,96.8289 14.5,99C 8.33862,101.817 5.67196,106.65 6.5,113.5C 4.94271,120.068 6.94271,125.401 12.5,129.5C 10.3691,130.169 8.3691,130.835 6.5,131.5C 6.5,134.167 6.5,136.833 6.5,139.5C 4.03252,147.266 6.36585,153.099 13.5,157C 21.2538,158.866 27.9204,157.033 33.5,151.5C 41.828,158.636 50.6614,159.302 60,153.5C 64.6916,156.442 69.8583,157.276 75.5,156C 76,155.5 76.5,155 77,154.5C 77.3333,144.5 77.6667,134.5 78,124.5C 79,121.833 80,121.833 81,124.5C 81.3333,131.833 81.6667,139.167 82,146.5C 83.882,154.548 89.0487,158.215 97.5,157.5C 102.248,157.861 106.415,156.528 110,153.5C 111.255,154.211 112.421,155.044 113.5,156C 122.5,156.667 131.5,156.667 140.5,156C 141,155.5 141.5,155 142,154.5C 142.173,149.416 142.839,144.416 144,139.5C 145.917,143.858 148.083,147.858 150.5,151.5C 153.576,153.573 155.91,156.239 157.5,159.5C 158.209,160.404 159.209,160.737 160.5,160.5C 160.664,157.813 160.497,155.146 160,152.5C 158.223,149.941 156.723,147.274 155.5,144.5C 156.684,143.312 156.684,142.145 155.5,141C 158.743,140.092 161.077,138.092 162.5,135C 169.303,134.123 175.969,133.956 182.5,134.5C 182.533,138.869 182.2,143.202 181.5,147.5C 179.957,149.928 178.957,152.594 178.5,155.5C 177.359,158.64 177.192,161.973 178,165.5C 180.064,166.591 182.231,166.758 184.5,166C 185.455,162.901 186.289,159.734 187,156.5C 189.633,154.359 191.133,151.692 191.5,148.5C 191.5,155.833 191.5,163.167 191.5,170.5C 188.26,180.741 181.593,187.741 171.5,191.5C 121.167,191.5 70.8333,191.5 20.5,191.5C 10.2593,188.26 3.25933,181.593 -0.5,171.5C -0.5,121.167 -0.5,70.8333 -0.5,20.5C 2.74016,10.2593 9.40683,3.25933 19.5,-0.5 Z"/></g>
<g><path style="opacity:1" fill="#525227" d="M 143.5,30.5 C 147.649,29.9197 151.316,30.5864 154.5,32.5C 154.5,34.1667 154.5,35.8333 154.5,37.5C 150.833,37.5 147.167,37.5 143.5,37.5C 143.5,35.1667 143.5,32.8333 143.5,30.5 Z"/></g>
<g><path style="opacity:1" fill="#4e4e22" d="M 36.5,49.5 C 37.2363,60.1958 38.2363,70.8624 39.5,81.5C 39.5,82.1667 39.5,82.8333 39.5,83.5C 36.1667,83.5 32.8333,83.5 29.5,83.5C 29.5,80.8333 29.5,78.1667 29.5,75.5C 27.1667,75.5 24.8333,75.5 22.5,75.5C 22.5,78.1667 22.5,80.8333 22.5,83.5C 19.1667,83.5 15.8333,83.5 12.5,83.5C 13.775,69.474 15.1083,55.474 16.5,41.5C 16.2229,38.5525 16.5562,35.7191 17.5,33C 23.1667,32.3333 28.8333,32.3333 34.5,33C 35.5256,38.4138 36.1923,43.9138 36.5,49.5 Z"/></g>
<g><path style="opacity:1" fill="#4d4d21" d="M 108.5,47.5 C 108.5,59.5 108.5,71.5 108.5,83.5C 105.5,83.5 102.5,83.5 99.5,83.5C 99.6567,82.1266 99.49,80.7932 99,79.5C 96.0868,84.6894 91.9201,85.8561 86.5,83C 83.1751,76.754 82.6751,70.254 85,63.5C 88.6062,59.4469 93.1062,57.1135 98.5,56.5C 98.7771,53.5525 98.4438,50.7191 97.5,48C 96.5509,47.3828 95.7175,47.5494 95,48.5C 94.5065,50.1341 94.3398,51.8008 94.5,53.5C 91.1667,53.5 87.8333,53.5 84.5,53.5C 84.2786,50.7212 84.612,48.0545 85.5,45.5C 86.6728,43.4959 88.3395,41.9959 90.5,41C 94.5,40.3333 98.5,40.3333 102.5,41C 106.089,41.7542 108.089,43.9209 108.5,47.5 Z"/></g>
<g><path style="opacity:1" fill="#4d4c20" d="M 183.5,48.5 C 184.754,58.1171 184.754,67.7838 183.5,77.5C 179.46,83.4443 173.794,85.6109 166.5,84C 164.548,83.6339 162.882,82.8005 161.5,81.5C 160.199,80.1184 159.366,78.4517 159,76.5C 158.193,66.4229 158.36,56.4229 159.5,46.5C 161.986,42.0065 165.819,40.0065 171,40.5C 177.145,40.1557 181.312,42.8224 183.5,48.5 Z"/></g>
<g><path style="opacity:1" fill="#525227" d="M 154.5,92.5 C 154.672,93.4916 154.338,94.1583 153.5,94.5C 152.185,93.5244 150.852,92.5244 149.5,91.5C 148.583,92.1272 147.583,92.4606 146.5,92.5C 146.953,91.5416 147.619,90.7083 148.5,90C 146.5,89.6667 144.5,89.3333 142.5,89C 141.892,87.769 141.559,86.4357 141.5,85C 143.382,70.2474 144.049,55.4141 143.5,40.5C 147.167,40.5 150.833,40.5 154.5,40.5C 154.667,54.504 154.5,68.504 154,82.5C 153.464,84.8689 152.297,86.8689 150.5,88.5C 151.521,90.188 152.855,91.5213 154.5,92.5 Z"/></g>
<g><path style="opacity:1" fill="#6a6864" d="M 67.5,43.5 C 62.4635,43.4126 57.4635,43.746 52.5,44.5C 52.9175,43.7784 53.5842,43.2784 54.5,43C 59.0204,42.1864 63.3537,42.353 67.5,43.5 Z"/></g>
<g><path style="opacity:1" fill="#2b2823" d="M 67.5,43.5 C 71.62,44.7256 75.2867,46.7256 78.5,49.5C 82.1078,53.0547 83.7745,57.3881 83.5,62.5C 80.9785,61.9885 78.6451,60.9885 76.5,59.5C 70.6647,53.6933 65.498,54.36 61,61.5C 59.5023,64.4954 58.0023,67.4954 56.5,70.5C 55.2291,72.1086 54.2291,73.9419 53.5,76C 50.2072,76.8256 46.8738,77.3256 43.5,77.5C 42.3263,76.4863 41.6596,75.153 41.5,73.5C 47.887,72.8042 50.2204,69.4708 48.5,63.5C 46.4759,61.6419 44.3092,59.9752 42,58.5C 41.5172,57.552 41.3505,56.552 41.5,55.5C 41.5,55.1667 41.5,54.8333 41.5,54.5C 44.2115,50.1221 47.8782,46.7887 52.5,44.5C 57.4635,43.746 62.4635,43.4126 67.5,43.5 Z"/></g>
<g><path style="opacity:1" fill="#e4e4e2" d="M 128.5,30.5 C 128.5,32.8333 128.5,35.1667 128.5,37.5C 131.833,37.5 135.167,37.5 138.5,37.5C 138.5,35.1667 138.5,32.8333 138.5,30.5C 139.458,30.9528 140.292,31.6195 141,32.5C 141.708,31.6195 142.542,30.9528 143.5,30.5C 143.5,32.8333 143.5,35.1667 143.5,37.5C 147.167,37.5 150.833,37.5 154.5,37.5C 154.5,35.8333 154.5,34.1667 154.5,32.5C 155.117,32.6107 155.617,32.944 156,33.5C 156.499,37.8206 156.666,42.1539 156.5,46.5C 157.5,46.5 158.5,46.5 159.5,46.5C 158.36,56.4229 158.193,66.4229 159,76.5C 159.366,78.4517 160.199,80.1184 161.5,81.5C 158.877,82.4321 158.877,84.2654 161.5,87C 172.558,92.3475 180.224,89.5142 184.5,78.5C 184.376,77.8933 184.043,77.56 183.5,77.5C 184.754,67.7838 184.754,58.1171 183.5,48.5C 185.092,47.3984 185.925,48.065 186,50.5C 186.811,61.8798 186.645,73.2131 185.5,84.5C 181.901,89.7054 176.901,92.0387 170.5,91.5C 165.491,91.9112 161.324,90.2445 158,86.5C 156.923,88.5778 155.757,90.5778 154.5,92.5C 152.855,91.5213 151.521,90.188 150.5,88.5C 152.297,86.8689 153.464,84.8689 154,82.5C 154.5,68.504 154.667,54.504 154.5,40.5C 150.833,40.5 147.167,40.5 143.5,40.5C 144.049,55.4141 143.382,70.2474 141.5,85C 141.559,86.4357 141.892,87.769 142.5,89C 144.5,89.3333 146.5,89.6667 148.5,90C 147.619,90.7083 146.953,91.5416 146.5,92.5C 143.526,95.2966 143.86,96.2966 147.5,95.5C 148.491,99.4454 148.824,103.445 148.5,107.5C 143.564,108.241 143.23,110.074 147.5,113C 150.872,114.122 152.872,112.955 153.5,109.5C 153.833,109.5 154.167,109.5 154.5,109.5C 154.774,114.263 154.441,118.93 153.5,123.5C 153.167,123.5 152.833,123.5 152.5,123.5C 149.122,120.576 146.122,120.91 143.5,124.5C 142.778,124.918 142.278,125.584 142,126.5C 141.667,126.167 141.333,125.833 141,125.5C 140.5,117.173 140.334,108.84 140.5,100.5C 141.613,99.0536 141.78,97.3869 141,95.5C 139.647,94.3147 138.48,92.9814 137.5,91.5C 133.633,90.8653 129.8,90.1987 126,89.5C 114.73,90.2578 103.397,90.9245 92,91.5C 87.6684,91.5842 84.1684,89.9176 81.5,86.5C 72.8754,94.4469 62.8754,96.6135 51.5,93C 50.0577,92.6232 49.0577,91.7899 48.5,90.5C 56.7133,92.8725 65.0467,93.0391 73.5,91C 76.4409,88.7134 79.1075,86.2134 81.5,83.5C 83.3159,84.8149 84.9825,86.3149 86.5,88C 88.1992,88.9581 90.0326,89.4581 92,89.5C 102.546,88.3295 113.046,87.6628 123.5,87.5C 124.486,70.2139 124.819,52.8805 124.5,35.5C 126.534,34.4093 127.868,32.7426 128.5,30.5 Z"/></g>
<g><path style="opacity:1" fill="#686842" d="M 128.5,41.5 C 131.625,40.5206 134.958,40.1872 138.5,40.5C 138.5,55.1667 138.5,69.8333 138.5,84.5C 134.958,84.8128 131.625,84.4794 128.5,83.5C 131.5,83.5 134.5,83.5 137.5,83.5C 137.5,69.5 137.5,55.5 137.5,41.5C 134.5,41.5 131.5,41.5 128.5,41.5 Z"/></g>
<g><path style="opacity:1" fill="#48491b" d="M 128.5,41.5 C 131.5,41.5 134.5,41.5 137.5,41.5C 137.5,55.5 137.5,69.5 137.5,83.5C 134.5,83.5 131.5,83.5 128.5,83.5C 128.5,69.5 128.5,55.5 128.5,41.5 Z"/></g>
<g><path style="opacity:1" fill="#4b4b1e" d="M 128.5,30.5 C 131.833,30.5 135.167,30.5 138.5,30.5C 138.5,32.8333 138.5,35.1667 138.5,37.5C 135.167,37.5 131.833,37.5 128.5,37.5C 128.5,35.1667 128.5,32.8333 128.5,30.5 Z"/></g>
<g><path style="opacity:1" fill="#e1e1df" d="M 169.5,48.5 C 170.822,48.33 171.989,48.6634 173,49.5C 173.667,58.1667 173.667,66.8333 173,75.5C 171.667,76.8333 170.333,76.8333 169,75.5C 168.196,66.4221 168.363,57.4221 169.5,48.5 Z"/></g>
<g><path style="opacity:1" fill="#d4d4d2" d="M 113.5,32.5 C 113.5,49.8333 113.5,67.1667 113.5,84.5C 116.833,84.5 120.167,84.5 123.5,84.5C 123.5,67.1667 123.5,49.8333 123.5,32.5C 124.404,33.209 124.737,34.209 124.5,35.5C 124.819,52.8805 124.486,70.2139 123.5,87.5C 113.046,87.6628 102.546,88.3295 92,89.5C 90.0326,89.4581 88.1992,88.9581 86.5,88C 84.9825,86.3149 83.3159,84.8149 81.5,83.5C 79.1075,86.2134 76.4409,88.7134 73.5,91C 65.0467,93.0391 56.7133,92.8725 48.5,90.5C 45.8062,87.1395 42.8062,84.1395 39.5,81.5C 38.2363,70.8624 37.2363,60.1958 36.5,49.5C 37.9387,51.3603 39.6053,53.027 41.5,54.5C 41.5,54.8333 41.5,55.1667 41.5,55.5C 40.027,58.0169 39.3603,60.8502 39.5,64C 39.5056,66.0326 39.8389,67.866 40.5,69.5C 40.5,70.1667 40.5,70.8333 40.5,71.5C 40.8333,72.1667 41.1667,72.8333 41.5,73.5C 41.6596,75.153 42.3263,76.4863 43.5,77.5C 43.5,78.1667 43.8333,78.5 44.5,78.5C 45.5,80.1667 46.8333,81.5 48.5,82.5C 48.9731,83.9063 49.9731,84.573 51.5,84.5C 56.0403,87.2956 61.0403,88.129 66.5,87C 70.7023,85.1079 74.7023,82.9412 78.5,80.5C 80.534,78.3452 80.8674,76.0118 79.5,73.5C 78.4048,68.6402 76.7381,63.9735 74.5,59.5C 75.1667,59.5 75.8333,59.5 76.5,59.5C 78.6451,60.9885 80.9785,61.9885 83.5,62.5C 83.7745,57.3881 82.1078,53.0547 78.5,49.5C 81.2734,50.9361 82.7734,49.9361 83,46.5C 83.6708,45.7476 84.5041,45.4142 85.5,45.5C 84.612,48.0545 84.2786,50.7212 84.5,53.5C 87.8333,53.5 91.1667,53.5 94.5,53.5C 94.3398,51.8008 94.5065,50.1341 95,48.5C 95.7175,47.5494 96.5509,47.3828 97.5,48C 98.4438,50.7191 98.7771,53.5525 98.5,56.5C 93.1062,57.1135 88.6062,59.4469 85,63.5C 82.6751,70.254 83.1751,76.754 86.5,83C 91.9201,85.8561 96.0868,84.6894 99,79.5C 99.49,80.7932 99.6567,82.1266 99.5,83.5C 102.625,84.4794 105.958,84.8128 109.5,84.5C 110.33,73.6743 110.83,62.6743 111,51.5C 112.127,45.1565 112.96,38.8231 113.5,32.5 Z"/></g>
<g><path style="opacity:1" fill="#858567" d="M 108.5,47.5 C 109.495,59.6554 109.829,71.9887 109.5,84.5C 105.958,84.8128 102.625,84.4794 99.5,83.5C 102.5,83.5 105.5,83.5 108.5,83.5C 108.5,71.5 108.5,59.5 108.5,47.5 Z"/></g>
<g><path style="opacity:1" fill="#4b4a1e" d="M 113.5,32.5 C 116.833,32.5 120.167,32.5 123.5,32.5C 123.5,49.8333 123.5,67.1667 123.5,84.5C 120.167,84.5 116.833,84.5 113.5,84.5C 113.5,67.1667 113.5,49.8333 113.5,32.5 Z"/></g>
<g><path style="opacity:1" fill="#c9c9c2" d="M 25.5,41.5 C 27.1531,49.95 28.1531,58.6166 28.5,67.5C 26.8333,67.5 25.1667,67.5 23.5,67.5C 24.014,58.8184 24.6806,50.1517 25.5,41.5 Z"/></g>
<g><path style="opacity:1" fill="#7a7865" d="M 76.5,59.5 C 75.8333,59.5 75.1667,59.5 74.5,59.5C 70.6376,56.509 67.1376,56.8424 64,60.5C 63.5507,63.0937 64.5507,65.0937 67,66.5C 68.5226,72.146 66.3559,75.146 60.5,75.5C 60.5,75.1667 60.5,74.8333 60.5,74.5C 65.6251,72.625 66.6251,69.4583 63.5,65C 62.0039,64.4926 60.8373,64.9926 60,66.5C 59.059,68.7274 57.8923,70.7274 56.5,72.5C 56.5,71.8333 56.5,71.1667 56.5,70.5C 58.0023,67.4954 59.5023,64.4954 61,61.5C 65.498,54.36 70.6647,53.6933 76.5,59.5 Z"/></g>
<g><path style="opacity:1" fill="#46432b" d="M 41.5,55.5 C 41.3505,56.552 41.5172,57.552 42,58.5C 44.3092,59.9752 46.4759,61.6419 48.5,63.5C 50.2204,69.4708 47.887,72.8042 41.5,73.5C 41.1667,72.8333 40.8333,72.1667 40.5,71.5C 50.829,69.1252 51.1623,65.4586 41.5,60.5C 40.5159,63.4281 40.1826,66.4281 40.5,69.5C 39.8389,67.866 39.5056,66.0326 39.5,64C 39.3603,60.8502 40.027,58.0169 41.5,55.5 Z"/></g>
<g><path style="opacity:1" fill="#2d2a25" d="M 74.5,59.5 C 76.7381,63.9735 78.4048,68.6402 79.5,73.5C 79.67,74.8221 79.3366,75.9887 78.5,77C 68.7982,80.2977 58.7982,82.1311 48.5,82.5C 46.8333,81.5 45.5,80.1667 44.5,78.5C 50.2283,78.9466 55.5617,77.9466 60.5,75.5C 66.3559,75.146 68.5226,72.146 67,66.5C 64.5507,65.0937 63.5507,63.0937 64,60.5C 67.1376,56.8424 70.6376,56.509 74.5,59.5 Z"/></g>
<g><path style="opacity:1" fill="#eeeeed" d="M 16.5,41.5 C 15.1083,55.474 13.775,69.474 12.5,83.5C 10.3385,88.1327 11.8385,90.1327 17,89.5C 21.9334,89.7324 24.4334,87.399 24.5,82.5C 25.5,82.5 26.5,82.5 27.5,82.5C 26.9637,87.3267 29.1303,89.3267 34,88.5C 38.2575,89.4073 40.0908,87.7406 39.5,83.5C 39.5,82.8333 39.5,82.1667 39.5,81.5C 42.8062,84.1395 45.8062,87.1395 48.5,90.5C 46.6336,89.9862 44.8003,89.3195 43,88.5C 38.4089,90.5093 33.5755,91.0093 28.5,90C 26.5,86.6667 24.5,86.6667 22.5,90C 18.577,90.7927 14.7436,90.626 11,89.5C 10.272,73.6769 11.4387,58.0102 14.5,42.5C 14.9569,41.7025 15.6236,41.3691 16.5,41.5 Z"/></g>
<g><path style="opacity:1" fill="#27241e" d="M 40.5,71.5 C 40.5,70.8333 40.5,70.1667 40.5,69.5C 40.1826,66.4281 40.5159,63.4281 41.5,60.5C 51.1623,65.4586 50.829,69.1252 40.5,71.5 Z"/></g>
<g><path style="opacity:1" fill="#2a2721" d="M 60.5,74.5 C 56.9853,76.3606 55.652,75.6939 56.5,72.5C 57.8923,70.7274 59.059,68.7274 60,66.5C 60.8373,64.9926 62.0039,64.4926 63.5,65C 66.6251,69.4583 65.6251,72.625 60.5,74.5 Z"/></g>
<g><path style="opacity:1" fill="#dededc" d="M 96.5,61.5 C 97.8048,63.3972 98.4714,65.7305 98.5,68.5C 98.3333,70.8333 98.1667,73.1667 98,75.5C 97,76.8333 96,76.8333 95,75.5C 93.9656,70.5431 94.4656,65.8764 96.5,61.5 Z"/></g>
<g><path style="opacity:1" fill="#5d5c39" d="M 56.5,70.5 C 56.5,71.1667 56.5,71.8333 56.5,72.5C 55.652,75.6939 56.9853,76.3606 60.5,74.5C 60.5,74.8333 60.5,75.1667 60.5,75.5C 55.5617,77.9466 50.2283,78.9466 44.5,78.5C 43.8333,78.5 43.5,78.1667 43.5,77.5C 46.8738,77.3256 50.2072,76.8256 53.5,76C 54.2291,73.9419 55.2291,72.1086 56.5,70.5 Z"/></g>
<g><path style="opacity:1" fill="#787662" d="M 79.5,73.5 C 80.8674,76.0118 80.534,78.3452 78.5,80.5C 78.44,79.9569 78.1067,79.6236 77.5,79.5C 68.8982,82.2214 60.2315,83.8881 51.5,84.5C 49.9731,84.573 48.9731,83.9063 48.5,82.5C 58.7982,82.1311 68.7982,80.2977 78.5,77C 79.3366,75.9887 79.67,74.8221 79.5,73.5 Z"/></g>
<g><path style="opacity:1" fill="#33302a" d="M 78.5,80.5 C 74.7023,82.9412 70.7023,85.1079 66.5,87C 61.0403,88.129 56.0403,87.2956 51.5,84.5C 60.2315,83.8881 68.8982,82.2214 77.5,79.5C 78.1067,79.6236 78.44,79.9569 78.5,80.5 Z"/></g>
<g><path style="opacity:1" fill="#cdcdcb" d="M 183.5,77.5 C 184.043,77.56 184.376,77.8933 184.5,78.5C 180.224,89.5142 172.558,92.3475 161.5,87C 158.877,84.2654 158.877,82.4321 161.5,81.5C 162.882,82.8005 164.548,83.6339 166.5,84C 173.794,85.6109 179.46,83.4443 183.5,77.5 Z"/></g>
<g><path style="opacity:1" fill="#d5d5d3" d="M 39.5,83.5 C 40.0908,87.7406 38.2575,89.4073 34,88.5C 29.1303,89.3267 26.9637,87.3267 27.5,82.5C 26.5,82.5 25.5,82.5 24.5,82.5C 24.4334,87.399 21.9334,89.7324 17,89.5C 11.8385,90.1327 10.3385,88.1327 12.5,83.5C 15.8333,83.5 19.1667,83.5 22.5,83.5C 22.5,80.8333 22.5,78.1667 22.5,75.5C 24.8333,75.5 27.1667,75.5 29.5,75.5C 29.5,78.1667 29.5,80.8333 29.5,83.5C 32.8333,83.5 36.1667,83.5 39.5,83.5 Z"/></g>
<g><path style="opacity:1" fill="#161614" d="M 153.5,94.5 C 153.5,95.8333 152.833,96.5 151.5,96.5C 150.498,99.7225 150.165,103.722 150.5,108.5C 151.791,108.263 152.791,108.596 153.5,109.5C 152.872,112.955 150.872,114.122 147.5,113C 143.23,110.074 143.564,108.241 148.5,107.5C 148.824,103.445 148.491,99.4454 147.5,95.5C 143.86,96.2966 143.526,95.2966 146.5,92.5C 147.583,92.4606 148.583,92.1272 149.5,91.5C 150.852,92.5244 152.185,93.5244 153.5,94.5 Z"/></g>
<g><path style="opacity:1" fill="#838371" d="M 151.5,96.5 C 151.5,100.167 151.5,103.833 151.5,107.5C 153.179,107.285 154.179,107.952 154.5,109.5C 154.167,109.5 153.833,109.5 153.5,109.5C 152.791,108.596 151.791,108.263 150.5,108.5C 150.165,103.722 150.498,99.7225 151.5,96.5 Z"/></g>
<g><path style="opacity:1" fill="#0f438b" d="M 114.5,99.5 C 117.833,99.5 121.167,99.5 124.5,99.5C 124.5,116.5 124.5,133.5 124.5,150.5C 121.167,150.5 117.833,150.5 114.5,150.5C 114.5,133.5 114.5,116.5 114.5,99.5 Z"/></g>
<g><path style="opacity:1" fill="#253346" d="M 59.5,111.5 C 60.3597,115.434 60.693,119.434 60.5,123.5C 57.1667,123.5 53.8333,123.5 50.5,123.5C 50.8064,120.615 50.4731,117.948 49.5,115.5C 47.8466,114.201 46.3466,114.534 45,116.5C 44.1772,124.677 44.3439,132.677 45.5,140.5C 46.5383,142.519 47.8716,142.853 49.5,141.5C 50.4767,138.713 50.81,135.713 50.5,132.5C 53.8333,132.5 57.1667,132.5 60.5,132.5C 61.924,148.471 54.924,153.971 39.5,149C 36.1877,145.901 34.521,142.067 34.5,137.5C 34.3337,130.492 34.5004,123.492 35,116.5C 35.3128,112.035 37.4794,108.868 41.5,107C 48.4772,105.322 54.4772,106.822 59.5,111.5 Z"/></g>
<g><path style="opacity:1" fill="#1e3759" d="M 64.5,106.5 C 67.8333,106.5 71.1667,106.5 74.5,106.5C 74.3433,107.873 74.51,109.207 75,110.5C 76.7155,107.603 79.2155,106.269 82.5,106.5C 82.5,109.167 82.5,111.833 82.5,114.5C 79.8822,114.779 77.3822,115.446 75,116.5C 74.5001,127.828 74.3335,139.162 74.5,150.5C 71.1667,150.5 67.8333,150.5 64.5,150.5C 64.5,135.833 64.5,121.167 64.5,106.5 Z"/></g>
<g><path style="opacity:1" fill="#1e3d6a" d="M 102.5,107.5 C 100.631,109.635 99.9644,112.302 100.5,115.5C 98.9582,114.699 97.2915,114.366 95.5,114.5C 95.5,123.833 95.5,133.167 95.5,142.5C 97.2915,142.634 98.9582,142.301 100.5,141.5C 98.9562,144.248 98.2895,147.248 98.5,150.5C 90.7444,151.403 86.0777,148.069 84.5,140.5C 84.5,132.5 84.5,124.5 84.5,116.5C 85.1667,114.833 85.8333,113.167 86.5,111.5C 90.8497,106.549 96.183,105.216 102.5,107.5 Z"/></g>
<g><path style="opacity:1" fill="#153f79" d="M 102.5,107.5 C 107.823,109.12 110.49,112.786 110.5,118.5C 110.666,126.84 110.5,135.173 110,143.5C 107.829,148.494 103.996,150.828 98.5,150.5C 98.2895,147.248 98.9562,144.248 100.5,141.5C 100.5,132.833 100.5,124.167 100.5,115.5C 99.9644,112.302 100.631,109.635 102.5,107.5 Z"/></g>
<g><path style="opacity:1" fill="#292e35" d="M 31.5,113.5 C 27.8333,113.5 24.1667,113.5 20.5,113.5C 20.5,111.833 20.5,110.167 20.5,108.5C 19.1667,108.5 17.8333,108.5 16.5,108.5C 16.7255,113.413 19.0588,117.08 23.5,119.5C 25.1271,121.63 26.9604,123.63 29,125.5C 30.4114,127.65 31.2447,129.984 31.5,132.5C 33.4348,146.734 27.4348,152.567 13.5,150C 11.6769,149.003 10.0103,147.836 8.5,146.5C 7.83333,144.167 7.16667,141.833 6.5,139.5C 6.5,136.833 6.5,134.167 6.5,131.5C 9.83333,131.5 13.1667,131.5 16.5,131.5C 16.3354,134.518 16.502,137.518 17,140.5C 18.3333,141.833 19.6667,141.833 21,140.5C 21.6667,138.167 21.6667,135.833 21,133.5C 17.7019,129.2 14.0352,125.2 10,121.5C 8.15523,119.133 6.98857,116.467 6.5,113.5C 5.67196,106.65 8.33862,101.817 14.5,99C 26.1612,96.8289 31.8279,101.662 31.5,113.5 Z"/></g>
<g><path style="opacity:1" fill="#42423d" d="M 156.5,100.5 C 156.666,109.173 156.5,117.84 156,126.5C 153.995,127.032 152.829,126.032 152.5,123.5C 152.833,123.5 153.167,123.5 153.5,123.5C 153.783,124.289 154.283,124.956 155,125.5C 155.171,116.99 155.671,108.657 156.5,100.5 Z"/></g>
<g><path style="opacity:1" fill="#c6c7c7" d="M 31.5,113.5 C 31.7035,115.39 31.0368,116.89 29.5,118C 27.2922,118.191 25.2922,118.691 23.5,119.5C 19.0588,117.08 16.7255,113.413 16.5,108.5C 17.8333,108.5 19.1667,108.5 20.5,108.5C 20.5,110.167 20.5,111.833 20.5,113.5C 24.1667,113.5 27.8333,113.5 31.5,113.5 Z"/></g>
<g><path style="opacity:1" fill="#d0d3d8" d="M 129.5,98.5 C 129.5,115.833 129.5,133.167 129.5,150.5C 132.833,150.5 136.167,150.5 139.5,150.5C 139.5,133.167 139.5,115.833 139.5,98.5C 140.338,98.8417 140.672,99.5084 140.5,100.5C 140.334,108.84 140.5,117.173 141,125.5C 141.333,125.833 141.667,126.167 142,126.5C 142.278,125.584 142.778,124.918 143.5,124.5C 143.34,126.199 143.506,127.866 144,129.5C 148.871,137.244 153.204,145.244 157,153.5C 157.495,155.473 157.662,157.473 157.5,159.5C 155.91,156.239 153.576,153.573 150.5,151.5C 149.622,145.745 147.122,140.745 143,136.5C 141.714,141.992 141.047,147.659 141,153.5C 139.178,155.045 137.011,155.712 134.5,155.5C 127.873,155.114 121.206,154.947 114.5,155C 113.286,152.649 112.452,150.149 112,147.5C 107.445,154.613 100.945,157.113 92.5,155C 90.3415,154.088 88.1748,153.255 86,152.5C 85.4739,149.089 84.6406,145.755 83.5,142.5C 83.5427,141.584 83.8761,140.917 84.5,140.5C 86.0777,148.069 90.7444,151.403 98.5,150.5C 103.996,150.828 107.829,148.494 110,143.5C 110.5,135.173 110.666,126.84 110.5,118.5C 111.222,118.918 111.722,119.584 112,120.5C 112.333,120.167 112.667,119.833 113,119.5C 113.17,130.008 113.67,140.341 114.5,150.5C 117.833,150.5 121.167,150.5 124.5,150.5C 124.833,150.5 125.167,150.5 125.5,150.5C 126.167,134.995 126.833,119.328 127.5,103.5C 128.17,101.709 128.837,100.042 129.5,98.5 Z"/></g>
<g><path style="opacity:1" fill="#074599" d="M 129.5,98.5 C 132.833,98.5 136.167,98.5 139.5,98.5C 139.5,115.833 139.5,133.167 139.5,150.5C 136.167,150.5 132.833,150.5 129.5,150.5C 129.5,133.167 129.5,115.833 129.5,98.5 Z"/></g>
<g><path style="opacity:1" fill="#5880b5" d="M 114.5,99.5 C 117.962,98.5184 121.629,98.185 125.5,98.5C 125.5,115.833 125.5,133.167 125.5,150.5C 125.167,150.5 124.833,150.5 124.5,150.5C 124.5,133.5 124.5,116.5 124.5,99.5C 121.167,99.5 117.833,99.5 114.5,99.5 Z"/></g>
<g><path style="opacity:1" fill="#d3d5d9" d="M 100.5,115.5 C 100.5,124.167 100.5,132.833 100.5,141.5C 98.9582,142.301 97.2915,142.634 95.5,142.5C 95.5,133.167 95.5,123.833 95.5,114.5C 97.2915,114.366 98.9582,114.699 100.5,115.5 Z"/></g>
<g><path style="opacity:1" fill="#51513b" d="M 189.5,124.5 C 189.666,130.509 189.499,136.509 189,142.5C 187.974,145.239 186.474,147.572 184.5,149.5C 187.444,141.468 188.278,133.134 187,124.5C 184.212,122.552 181.379,120.718 178.5,119C 176.101,118.289 173.768,118.456 171.5,119.5C 169.827,117.914 167.827,117.247 165.5,117.5C 165.666,112.156 165.499,106.823 165,101.5C 163.152,98.9586 160.652,97.9586 157.5,98.5C 160.01,95.9131 162.677,95.9131 165.5,98.5C 166.496,104.463 166.829,110.463 166.5,116.5C 170.524,117.469 174.524,117.636 178.5,117C 180.612,119.316 183.278,120.65 186.5,121C 188.063,121.759 189.063,122.926 189.5,124.5 Z"/></g>
<g><path style="opacity:1" fill="#1a1a15" d="M 157.5,98.5 C 160.652,97.9586 163.152,98.9586 165,101.5C 165.499,106.823 165.666,112.156 165.5,117.5C 167.827,117.247 169.827,117.914 171.5,119.5C 173.768,118.456 176.101,118.289 178.5,119C 181.379,120.718 184.212,122.552 187,124.5C 188.278,133.134 187.444,141.468 184.5,149.5C 184.5,149.833 184.5,150.167 184.5,150.5C 182.589,150.574 181.422,151.574 181,153.5C 180.503,155.81 180.337,158.143 180.5,160.5C 178.744,159.448 178.077,157.781 178.5,155.5C 178.957,152.594 179.957,149.928 181.5,147.5C 183.136,146.251 184.303,144.584 185,142.5C 185.499,136.509 185.666,130.509 185.5,124.5C 182.951,124.441 180.951,125.441 179.5,127.5C 178.692,125.577 178.192,123.577 178,121.5C 176.989,120.663 175.822,120.33 174.5,120.5C 174.662,122.527 174.495,124.527 174,126.5C 172.989,127.337 171.822,127.67 170.5,127.5C 170.5,125.167 170.5,122.833 170.5,120.5C 169.167,120.5 167.833,120.5 166.5,120.5C 166.662,122.527 166.495,124.527 166,126.5C 165.329,127.252 164.496,127.586 163.5,127.5C 163.666,118.827 163.5,110.16 163,101.5C 161.644,100.62 160.144,100.286 158.5,100.5C 158.5,110.833 158.5,121.167 158.5,131.5C 157.749,132.573 156.749,132.74 155.5,132C 153.383,127.697 150.05,125.197 145.5,124.5C 149.359,130.884 152.692,137.551 155.5,144.5C 156.723,147.274 158.223,149.941 160,152.5C 160.497,155.146 160.664,157.813 160.5,160.5C 159.209,160.737 158.209,160.404 157.5,159.5C 157.662,157.473 157.495,155.473 157,153.5C 153.204,145.244 148.871,137.244 144,129.5C 143.506,127.866 143.34,126.199 143.5,124.5C 146.122,120.91 149.122,120.576 152.5,123.5C 152.829,126.032 153.995,127.032 156,126.5C 156.5,117.84 156.666,109.173 156.5,100.5C 156.833,99.8333 157.167,99.1667 157.5,98.5 Z"/></g>
<g><path style="opacity:1" fill="#bdbdb4" d="M 163.5,127.5 C 162.508,120.352 162.175,113.019 162.5,105.5C 161.5,105.5 160.5,105.5 159.5,105.5C 159.826,114.349 159.493,123.016 158.5,131.5C 158.5,121.167 158.5,110.833 158.5,100.5C 160.144,100.286 161.644,100.62 163,101.5C 163.5,110.16 163.666,118.827 163.5,127.5 Z"/></g>
<g><path style="opacity:1" fill="#cccdcd" d="M 6.5,113.5 C 6.98857,116.467 8.15523,119.133 10,121.5C 14.0352,125.2 17.7019,129.2 21,133.5C 21.6667,135.833 21.6667,138.167 21,140.5C 19.6667,141.833 18.3333,141.833 17,140.5C 16.502,137.518 16.3354,134.518 16.5,131.5C 13.1667,131.5 9.83333,131.5 6.5,131.5C 8.3691,130.835 10.3691,130.169 12.5,129.5C 6.94271,125.401 4.94271,120.068 6.5,113.5 Z"/></g>
<g><path style="opacity:1" fill="#e0e0df" d="M 163.5,127.5 C 164.496,127.586 165.329,127.252 166,126.5C 166.495,124.527 166.662,122.527 166.5,120.5C 167.833,120.5 169.167,120.5 170.5,120.5C 170.5,122.833 170.5,125.167 170.5,127.5C 171.822,127.67 172.989,127.337 174,126.5C 174.495,124.527 174.662,122.527 174.5,120.5C 175.822,120.33 176.989,120.663 178,121.5C 178.192,123.577 178.692,125.577 179.5,127.5C 180.951,125.441 182.951,124.441 185.5,124.5C 185.666,130.509 185.499,136.509 185,142.5C 184.303,144.584 183.136,146.251 181.5,147.5C 182.2,143.202 182.533,138.869 182.5,134.5C 175.969,133.956 169.303,134.123 162.5,135C 161.077,138.092 158.743,140.092 155.5,141C 156.684,142.145 156.684,143.312 155.5,144.5C 152.692,137.551 149.359,130.884 145.5,124.5C 150.05,125.197 153.383,127.697 155.5,132C 156.749,132.74 157.749,132.573 158.5,131.5C 159.493,123.016 159.826,114.349 159.5,105.5C 160.5,105.5 161.5,105.5 162.5,105.5C 162.175,113.019 162.508,120.352 163.5,127.5 Z"/></g>
<g><path style="opacity:1" fill="#d2d3d4" d="M 64.5,106.5 C 64.5,121.167 64.5,135.833 64.5,150.5C 67.8333,150.5 71.1667,150.5 74.5,150.5C 74.3335,139.162 74.5001,127.828 75,116.5C 77.3822,115.446 79.8822,114.779 82.5,114.5C 83.3257,113.987 83.9924,112.653 84.5,110.5C 85.1835,110.863 85.8501,111.196 86.5,111.5C 85.8333,113.167 85.1667,114.833 84.5,116.5C 83.596,117.209 83.2627,118.209 83.5,119.5C 81.2075,119.244 79.0408,119.577 77,120.5C 77.1339,131.916 76.3005,143.083 74.5,154C 71.1667,154.667 67.8333,154.667 64.5,154C 62.9963,152.509 62.1629,150.676 62,148.5C 52.4341,159.111 42.7674,159.111 33,148.5C 30.7281,150.212 28.5614,152.046 26.5,154C 21.8333,154.667 17.1667,154.667 12.5,154C 8.93563,152.375 7.60229,149.875 8.5,146.5C 10.0103,147.836 11.6769,149.003 13.5,150C 27.4348,152.567 33.4348,146.734 31.5,132.5C 33.0276,133.802 34.0276,135.469 34.5,137.5C 34.521,142.067 36.1877,145.901 39.5,149C 54.924,153.971 61.924,148.471 60.5,132.5C 61.2216,132.918 61.7216,133.584 62,134.5C 62.4935,132.866 62.6602,131.199 62.5,129.5C 58.4862,129.666 54.4862,129.499 50.5,129C 48.7215,126.865 48.0548,124.365 48.5,121.5C 47.5,121.5 46.5,121.5 45.5,121.5C 45.5,127.833 45.5,134.167 45.5,140.5C 44.3439,132.677 44.1772,124.677 45,116.5C 46.3466,114.534 47.8466,114.201 49.5,115.5C 49.5,118.5 49.5,121.5 49.5,124.5C 53.3714,124.815 57.0381,124.482 60.5,123.5C 60.693,119.434 60.3597,115.434 59.5,111.5C 61.4788,110.188 63.1455,108.521 64.5,106.5 Z"/></g>
<g><path style="opacity:1" fill="#efefef" d="M 60.5,132.5 C 57.0381,131.518 53.3714,131.185 49.5,131.5C 49.5,134.833 49.5,138.167 49.5,141.5C 47.8716,142.853 46.5383,142.519 45.5,140.5C 45.5,134.167 45.5,127.833 45.5,121.5C 46.5,121.5 47.5,121.5 48.5,121.5C 48.0548,124.365 48.7215,126.865 50.5,129C 54.4862,129.499 58.4862,129.666 62.5,129.5C 62.6602,131.199 62.4935,132.866 62,134.5C 61.7216,133.584 61.2216,132.918 60.5,132.5 Z"/></g>
<g><path style="opacity:1" fill="#646f7c" d="M 49.5,115.5 C 50.4731,117.948 50.8064,120.615 50.5,123.5C 53.8333,123.5 57.1667,123.5 60.5,123.5C 57.0381,124.482 53.3714,124.815 49.5,124.5C 49.5,121.5 49.5,118.5 49.5,115.5 Z"/></g>
<g><path style="opacity:1" fill="#747e8c" d="M 60.5,132.5 C 57.1667,132.5 53.8333,132.5 50.5,132.5C 50.81,135.713 50.4767,138.713 49.5,141.5C 49.5,138.167 49.5,134.833 49.5,131.5C 53.3714,131.185 57.0381,131.518 60.5,132.5 Z"/></g>
<g><path style="opacity:1" fill="#525240" d="M 184.5,150.5 C 183.34,154.038 182.007,157.372 180.5,160.5C 180.337,158.143 180.503,155.81 181,153.5C 181.422,151.574 182.589,150.574 184.5,150.5 Z"/></g>
<g><path style="opacity:1" fill="#eeeeee" d="M 84.5,116.5 C 84.5,124.5 84.5,132.5 84.5,140.5C 83.8761,140.917 83.5427,141.584 83.5,142.5C 84.6406,145.755 85.4739,149.089 86,152.5C 88.1748,153.255 90.3415,154.088 92.5,155C 100.945,157.113 107.445,154.613 112,147.5C 112.452,150.149 113.286,152.649 114.5,155C 121.206,154.947 127.873,155.114 134.5,155.5C 137.011,155.712 139.178,155.045 141,153.5C 141.047,147.659 141.714,141.992 143,136.5C 147.122,140.745 149.622,145.745 150.5,151.5C 148.083,147.858 145.917,143.858 144,139.5C 142.839,144.416 142.173,149.416 142,154.5C 141.5,155 141,155.5 140.5,156C 131.5,156.667 122.5,156.667 113.5,156C 112.421,155.044 111.255,154.211 110,153.5C 106.415,156.528 102.248,157.861 97.5,157.5C 89.0487,158.215 83.882,154.548 82,146.5C 81.6667,139.167 81.3333,131.833 81,124.5C 80,121.833 79,121.833 78,124.5C 77.6667,134.5 77.3333,144.5 77,154.5C 76.5,155 76,155.5 75.5,156C 69.8583,157.276 64.6916,156.442 60,153.5C 50.6614,159.302 41.828,158.636 33.5,151.5C 27.9204,157.033 21.2538,158.866 13.5,157C 6.36585,153.099 4.03252,147.266 6.5,139.5C 7.16667,141.833 7.83333,144.167 8.5,146.5C 7.60229,149.875 8.93563,152.375 12.5,154C 17.1667,154.667 21.8333,154.667 26.5,154C 28.5614,152.046 30.7281,150.212 33,148.5C 42.7674,159.111 52.4341,159.111 62,148.5C 62.1629,150.676 62.9963,152.509 64.5,154C 67.8333,154.667 71.1667,154.667 74.5,154C 76.3005,143.083 77.1339,131.916 77,120.5C 79.0408,119.577 81.2075,119.244 83.5,119.5C 83.2627,118.209 83.596,117.209 84.5,116.5 Z"/></g>
<g><path style="opacity:1" fill="#e3e3e2" d="M 189.5,124.5 C 190.167,125.167 190.833,125.833 191.5,126.5C 191.5,133.833 191.5,141.167 191.5,148.5C 191.133,151.692 189.633,154.359 187,156.5C 186.289,159.734 185.455,162.901 184.5,166C 182.231,166.758 180.064,166.591 178,165.5C 177.192,161.973 177.359,158.64 178.5,155.5C 178.077,157.781 178.744,159.448 180.5,160.5C 182.007,157.372 183.34,154.038 184.5,150.5C 184.5,150.167 184.5,149.833 184.5,149.5C 186.474,147.572 187.974,145.239 189,142.5C 189.499,136.509 189.666,130.509 189.5,124.5 Z"/></g>
</svg>
